<svg width="90" height="124" viewBox="0 0 90 124" fill="none" xmlns="http://www.w3.org/2000/svg">
<path d="M58.3948 39.5648C59.7304 40.9555 61.1714 43.6767 62.5 45.5648L49.5 26.5648M58.3948 39.5648C48.0449 28.7882 37.8092 33.2812 30.8646 39.1078M58.3948 39.5648C56.8948 37.7 56.4 34.9648 66 34.5648C71.1146 34.3517 76.0779 36.6838 80.1034 39.5648M58.5 118.565C63.091 118.565 73.2184 117.465 77 113.065C90.2 103.465 89.8333 65.0648 88 47.0648C86.4426 45.0402 83.6336 42.0914 80.1034 39.5648M67 106.565C61.3825 117.512 47.2502 132.168 30.8646 116.065M23 106.065C25.6609 110.246 28.2906 113.535 30.8646 116.065M30.8646 116.065C23.5764 118.565 7.7 117.565 2.5 93.5648L1 49.5648C3.00039 45.8853 6.7056 41.047 11.5 38.0466M30.8646 39.1078C28.4528 41.1313 26.4506 43.4476 25 45.5648L38 31.5648L41 26.0648M30.8646 39.1078C23.6191 33.629 16.875 34.6828 11.5 38.0466M11.5 38.0466C15.0937 30.7018 24.1308 18.2717 32.0208 26.0648M32.5 26.5648C32.3408 26.3897 32.1811 26.2231 32.0208 26.0648M32.0208 26.0648H41M41 26.0648L45 15.5648M49.5 26.5648L50 16.5648M49.5 26.5648L57.5 26.0648C61.2356 23.2315 70.9861 21.9648 80.1034 39.5648M53 18.0648C55.5 16.5648 60.3 13.1648 59.5 11.5648C58.7 9.96484 63.5 5.56484 66 3.56484M66 3.56484C67.3333 3.23151 70.2 2.36484 71 1.56484M66 3.56484C65.2 2.76477 57.6667 1.56481 54 1.06484C47.6 0.264844 44.3333 7.06484 43.5 10.5648" stroke="black"/>
</svg>
