<svg width="159" height="192" viewBox="0 0 159 192" fill="none" xmlns="http://www.w3.org/2000/svg">
<path d="M77.7949 128.963C81.3005 127.453 84.3797 125.341 87.0599 122.898L87.6892 117.171C85.1168 122.218 81.9294 126.351 77.7949 128.963Z" fill="black"/>
<path d="M76.3912 98.3604L72.1798 101.168L72.5566 106.161L76.6814 100.02C76.5017 98.98 76.3912 98.3604 76.3912 98.3604Z" fill="black"/>
<path d="M94.0789 99.2026H89.0252L86.6675 104.196L93.5498 101.168C93.7294 100.516 93.9056 99.861 94.0789 99.2026Z" fill="black"/>
<path d="M104.186 101.168L101.379 98.3604C101.032 99.8392 100.478 101.667 99.7035 103.697L104.186 101.168Z" fill="black"/>
<path d="M119.628 111.556L116.82 106.502C115.351 107.596 112.897 108.826 110.372 109.948L119.628 111.556Z" fill="black"/>
<path d="M119.628 111.556L96.8864 124.752C93.9853 129.056 88.3514 140.362 89.0252 151.143C89.6991 161.924 88.7445 167.988 88.183 169.673L94.0789 173.323C93.7981 174.258 95.9319 177.141 106.713 181.184C117.494 185.227 102.782 184.366 94.0789 183.43L83.1293 176.13C96.0442 186.237 99.9748 193.537 85.0946 190.168C79.0303 183.654 74.3323 182.213 72.7413 182.307C72.7413 182.307 51.123 184.459 48.877 183.43C57.1874 182.082 65.816 175.007 69.0915 171.638C69.5594 168.175 70.4953 157.488 70.4953 142.439C70.4953 127.391 57.0189 119.698 50.2807 117.733V111.556C51.3102 110.994 54.7729 111.107 60.388 116.048C66.0031 120.989 70.5888 121.476 72.1798 121.102L73.3028 116.048L72.5566 106.161M119.628 111.556L116.82 106.502C115.351 107.596 112.897 108.826 110.372 109.948M119.628 111.556L110.372 109.948M104.186 101.168L101.379 113.521C101.379 113.521 105.981 111.899 110.372 109.948M104.186 101.168L101.379 98.3604C101.032 99.8392 100.478 101.667 99.7035 103.697M104.186 101.168L99.7035 103.697M87.0599 122.898C84.3797 125.341 81.3005 127.453 77.7949 128.963C81.9294 126.351 85.1168 122.218 87.6892 117.171M87.0599 122.898L87.6892 117.171M87.0599 122.898C93.3643 117.151 97.4608 109.574 99.7035 103.697M87.6892 117.171C90.0877 112.466 91.9515 106.967 93.5498 101.168M72.5566 106.161L72.1798 101.168L76.3912 98.3604C76.3912 98.3604 76.5017 98.98 76.6814 100.02M72.5566 106.161L76.6814 100.02M76.6814 100.02C77.3767 104.044 79.1077 114.36 79.4795 119.417L86.6675 104.196M86.6675 104.196L89.0252 99.2026H94.0789C93.9056 99.861 93.7294 100.516 93.5498 101.168M86.6675 104.196L93.5498 101.168" stroke="black"/>
<path d="M50.0542 108.075C50.0542 111.186 50.8261 116.001 48.496 118.543C46.2125 121.034 43.0662 123.172 39.8695 124.266C35.5619 125.74 32.1598 124.798 28.4384 122.042C26.1653 120.359 24.2164 117.967 23.169 115.328C22.944 114.761 22.7051 113.343 22.1067 112.991C21.4289 112.592 20.0364 112.64 19.2595 112.41C13.7122 110.77 8.88291 107.924 5.59027 103.075C2.02668 97.8269 -0.0622226 87.1534 5.08033 82.1251C6.81091 80.433 9.41722 79.3254 11.6246 78.3997C13.5931 77.5742 12.4047 76.9924 10.9305 76.0341C8.93916 74.7398 6.25603 73.3761 6.25603 70.6373C6.25603 67.3634 7.77224 64.5691 10.3072 62.6057C11.7992 61.4502 12.2982 61.6149 11.3838 59.8011C9.61749 56.2975 7.98299 53.4183 7.63003 49.4181C7.25614 45.1807 7.04029 39.7646 9.76895 36.2022C12.0836 33.1802 16.428 32.5864 19.9394 32.2502C22.9286 31.964 26.6685 31.9466 29.1608 33.9216C30.0866 34.6553 30.5923 35.8404 30.8889 36.9529C31.0043 37.3856 30.9819 40.0656 31.413 38.8652C32.6501 35.4214 34.4063 33.1057 38.1273 32.3776C41.2666 31.7634 46.0256 31.3149 48.6093 33.6808C50.2173 35.1531 49.7861 35.9888 52.1789 35.0973C53.6985 34.5312 55.2364 33.8894 56.825 33.5392C57.5876 33.3711 58.6037 33.6006 59.3181 33.3409C60.1925 33.0229 58.8332 27.7916 58.7231 27.0516C58.2876 24.1241 58.1603 20.6418 58.8931 17.7594C59.6054 14.9576 61.9386 12.5608 63.9075 10.5919C66.0602 8.43919 68.2913 5.99609 71.1317 4.75592C76.6187 2.36017 82.0271 1.9327 87.9314 2.00791C93.7223 2.08168 97.4808 5.22656 100.595 9.75616C102.484 12.5041 104.131 15.3266 105.581 18.326C106.12 19.4403 105.907 21.203 107.352 20.5782C109.119 19.8138 110.246 18.9193 112.253 18.8501C114.545 18.771 116.926 18.8769 119.094 19.7141C125.822 22.3122 126.819 30.9084 125.525 36.9954C125.404 37.5642 124.675 38.627 124.675 39.1768C124.675 39.649 126.865 40.2284 127.14 40.3667C130.097 41.8556 132.513 44.854 133.004 48.1574C133.344 50.4412 132.545 51.7499 132.211 53.8518C132.119 54.4337 138.101 54.4954 139.039 54.6733C144.185 55.6493 148.789 58.0156 152.58 61.6142C154.81 63.7308 156.693 67.5726 157.071 70.5948C157.629 75.0638 156.193 79.8174 154.28 83.7966C152.289 87.938 149.405 91.598 146.914 95.4402C145.478 97.6562 147.269 101.131 147.368 103.528C147.731 112.35 135.784 117.212 128.259 115.753C124.131 114.952 120.658 111.804 118.457 108.344C117.561 106.936 116.872 105.409 116.275 103.854C115.817 102.657 115.89 102.53 114.618 102.409C112.642 102.221 110.691 101.882 108.754 101.446C107.162 101.088 105.139 100.794 103.994 99.4914C103.261 98.6562 102.898 97.5892 102.62 96.5309C102.589 96.4104 102.444 94.722 102.266 94.6186C102.006 94.4666 101.02 95.2995 100.878 95.3835C99.2843 96.3275 97.5259 96.9945 95.7504 97.5083C91.6362 98.6988 87.5095 98.6694 83.4835 97.2391C82.2731 96.8091 81.0291 96.3796 79.9848 95.6102C79.3975 95.1774 79.23 94.5873 78.5825 95.2135C76.7026 97.0317 75.2679 98.4676 72.874 99.6472C70.4914 100.821 68.056 101.673 65.3665 101.673C62.8358 101.673 60.5584 100.771 58.1282 100.285C56.7915 100.017 55.5154 103.059 54.6578 103.968C52.6412 106.103 49.9517 106.855 47.2495 107.82" stroke="black" stroke-width="3" stroke-linecap="round"/>
</svg>
