<svg width="120" height="125" viewBox="0 0 120 125" fill="none" xmlns="http://www.w3.org/2000/svg">
<path d="M31.5 55.5C34 54 41.3 50.7 50.5 49.5C53.6217 49.0928 56.4863 48.9044 59 48.8527M69 49.5C67.4584 49.1696 63.8944 48.752 59 48.8527M59 26V48.8527M59 26C54.8333 27 45.2 28 40 24C43.3333 22.3333 51.1 19 55.5 19C53.8333 10 59 2 59 2C59 2 64.5 16.6667 63 19C70 19.8333 74.5 21 80.5 23.5C75.5 26 64.6667 27.1667 59 26Z" stroke="black"/>
<path d="M31 55.5001H1V77.5001H5.5L12.5 92.5001L9.5 95.0001L24 111L28.5 108L45 114.5V119.5L60 123.5L74.5 119.5V114.5L91 108L94.5 111L109.5 95.0001L107 92.5001L113 77.5001H116.5L118.5 55.5001H88.5M31 55.5001C27.8333 67.3334 28.8282 97.0001 60 97.0001C91 97.0001 92 71.3334 88.5 55.5001M31 55.5001H88.5M88.5 55.5001C85.5 53.0001 77 51 69 49.5" stroke="black"/>
</svg>
