<svg width="128" height="86" viewBox="0 0 128 86" fill="none" xmlns="http://www.w3.org/2000/svg">
<path d="M80.5 84.5C54.8333 80 3 71 1 71L22.7941 61.5M80.5 84.5L116.5 67.5M80.5 84.5V81M116.5 67.5L126.5 6L48 1L44.5 6L40 54M116.5 67.5C114.098 67.076 111.945 66.6962 109.924 66.3395M40 54L36 55.7436M40 54C43.5986 54.635 46.8375 55.2066 49.8804 55.7436M88.5 54L110.5 58L120 12L108 9.5M100.5 8H87M79.5 8H65M59 6C57.8 6 52.1667 6 49.5 6L44.5 48L68.5 51.5M36 55.7436L22.7941 61.5M36 55.7436L33.5 57.8718M36 55.7436L39.75 56.1218M28.5 63.5L34 65L40.1471 59.5M28.5 63.5L32.5 60.5L31 60M28.5 63.5L33.5 61.5L39.75 56.1218M22.7941 61.5L25 63.5L29.5 59.5L31 60M31 60L33.5 57.8718M33.5 57.8718L40.1471 59.5M40.1471 59.5L43.5 56.5L39.75 56.1218M40.1471 59.5L44.5 60.5M44.5 60.5L38 65.5L43.25 66.4356M44.5 60.5L49.8804 55.7436M98.5 67.5L88.5 74.5L86.5 74.1436M80.5 73.0743C84.4052 69.1056 86.5948 66.8805 90.5 62.9118M80.5 73.0743L86.5 74.1436M80.5 73.0743L74 71.9158M90.5 62.9118C92.4811 63.2614 94.2923 63.581 96 63.8824M90.5 62.9118L85 61.9412M96 63.8824L86.5 74.1436M96 63.8824C100.974 64.7601 105.069 65.4828 109.924 66.3395M74 71.9158L85 61.9412M74 71.9158L67 70.6683M85 61.9412L80.5 61.1471M80.5 61.1471L67 70.6683M80.5 61.1471C75.4406 60.2542 71.0922 59.4869 67 58.7647M67 70.6683L63.25 70M63.25 70L74 59.5M63.25 70L58.5 69.1535M67 58.7647L58.5 69.1535M67 58.7647C65.5295 58.5052 64.0921 58.2515 62.6667 58M58.5 69.1535L53 68.1733M62.6667 58L53 68.1733M62.6667 58C61.2729 57.754 59.8906 57.5101 58.5 57.2647M53 68.1733L48.5 67.3713M58.5 57.2647L48.5 67.3713M58.5 57.2647C57.0714 57.0126 55.6341 56.759 54.1667 56.5M48.5 67.3713L43.25 66.4356M54.1667 56.5L43.25 66.4356M54.1667 56.5C52.7713 56.2538 51.3486 56.0027 49.8804 55.7436M4.5 69.1535L54.1667 76.8953M80.5 81L109.924 66.3395M80.5 81L54.1667 76.8953M54.1667 76.8953L60.5 71.9158L39 67.5C35.8333 68.9719 29.3 71.9158 28.5 71.9158C28.1 72.3832 28 72.5 28 72.5" stroke="black"/>
</svg>
