<svg width="122" height="57" viewBox="0 0 122 57" fill="none" xmlns="http://www.w3.org/2000/svg">
<path d="M52.6079 18.8739H68.6079M52.6079 18.8739V28.8739M52.6079 18.8739C46.7317 10.5493 38.4746 8.53017 30.6079 14.9192M68.6079 18.8739V28.8739M68.6079 18.8739C71.2745 14.0406 79.4079 6.27401 90.6079 13.874M68.6079 28.8739H52.6079M68.6079 28.8739C69.9412 32.5406 74.3079 39.774 81.1079 39.374C85.1954 39.1336 88.6446 37.1949 91.1079 35.1435M52.6079 28.8739C48.1079 37.874 36.3585 39.8259 30.6079 34.018M30.6079 14.9192C30.6079 14.9192 16.6079 4.37392 16.1079 7.37392M30.6079 14.9192C29.2354 16.0338 28.0388 17.349 27.2183 18.8739M16.1079 7.37392L12.1079 2.37392C-1.89215 -2.62608 -1.39214 16.3739 6.60786 16.3739C9.87861 16.3739 12.1569 14.8069 13.6696 12.874M16.1079 7.37392C15.8634 8.84076 15.1169 11.0248 13.6696 12.874M16.1079 7.37392L13.6696 12.874M13.6696 12.874L27.2183 18.8739M27.2183 18.8739C26.3577 20.4731 25.9106 22.303 26.1079 24.3739C26.3273 26.6782 26.9802 28.6694 27.8974 30.374M27.8974 30.374L14.6079 41.374M27.8974 30.374C28.653 31.7782 29.588 32.988 30.6079 34.018M14.6079 41.374C15.4324 42.1321 17.3834 43.3818 18.1079 45.374M14.6079 41.374C12.1079 37.374 -1.89209 40.374 2.10791 50.874C8.50791 58.474 15.1079 54.0407 17.6079 50.874M17.6079 50.874C17.6079 50.874 18.9763 47.7618 18.1079 45.374M17.6079 50.874L18.1079 45.374M18.1079 45.374L30.6079 34.018M90.6079 13.874L106.108 6.87401M90.6079 13.874L94.6079 19.374M106.108 6.87401L107.608 13.874M106.108 6.87401C111.108 -4.62599 123.608 2.87401 120.108 11.374C117.308 18.174 110.608 15.874 107.608 13.874M107.608 13.874L94.6079 19.374M94.6079 19.374V31.374M94.6079 31.374L106.608 40.874M94.6079 31.374C93.9431 32.3712 92.7426 33.7822 91.1079 35.1435M106.608 40.874L104.108 45.374M106.608 40.874C110.775 39.2073 119.308 38.174 120.108 47.374C121.224 50.974 116.906 54.2073 114.608 55.374C104.608 56.974 103.441 49.374 104.108 45.374M104.108 45.374L91.1079 35.1435" stroke="black"/>
</svg>
