<svg width="53" height="118" viewBox="0 0 53 118" fill="none" xmlns="http://www.w3.org/2000/svg">
<path fill-rule="evenodd" clip-rule="evenodd" d="M51.2296 6.78885C48.8296 -1.21115 24.5629 0.788854 12.7296 2.78885C3.72949 4.28882 -6.3384 11.089 8.72971 14.1301V102.789C11.2297 107.955 18.2297 117.989 26.2297 116.789C34.2297 115.589 40.8964 106.955 43.2297 102.789V14.937C47.4519 14.7888 53.2296 13.4555 51.2296 6.78885ZM38.2297 8.78882H13.7297V7.28882L21.7297 6.28882L34.7297 7.28882L39.2296 7.78882L38.2297 8.78882Z" />
<path d="M13.7297 8.78882H38.2297L39.2296 7.78882L34.7297 7.28882L21.7297 6.28882L13.7297 7.28882V8.78882Z"/>
<path d="M39.2296 14.7889C39.3963 14.7889 41.1185 15.0111 43.2297 14.937M12.7296 14.7889C11.2296 14.5869 9.90083 14.3665 8.72971 14.1301M8.72971 14.1301C-6.3384 11.089 3.72949 4.28882 12.7296 2.78885C24.5629 0.788854 48.8296 -1.21115 51.2296 6.78885C53.2296 13.4555 47.4519 14.7888 43.2297 14.937M8.72971 14.1301V102.789C11.2297 107.955 18.2297 117.989 26.2297 116.789C34.2297 115.589 40.8964 106.955 43.2297 102.789V14.937M14.7297 22.7888L16.2297 21.2888M13.7297 28.7888L19.7297 22.7888M16.2297 32.2888L19.7297 30.2888M17.2297 34.7888L19.7297 33.7888M23.2297 34.7888L14.7297 41.7888M18.2297 44.2888L20.2297 42.2888M12.7297 48.7888V87.2888C13.2297 93.6222 16.6297 106.489 26.2297 107.289C35.8297 108.089 38.2297 95.9555 38.2297 89.7888M38.7297 87.2888L39.7297 48.7888L38.2297 47.7888H27.7297L23.7297 48.7888L22.2297 49.7888L17.2297 47.7888M15.2297 54.2888L25.2297 45.7888M17.2297 60.7888L21.2297 56.2888M13.7297 67.7888L23.2297 59.7888M18.2297 67.7888L20.2297 66.2888M18.2297 71.7888L19.7297 70.2888M23.7297 68.7888L14.7297 78.7888M34.7297 48.7888C32.563 50.7888 27.0297 54.0888 22.2297 51.2888M13.7297 8.78882H38.2297L39.2296 7.78882L34.7297 7.28882L21.7297 6.28882L13.7297 7.28882V8.78882Z" stroke="black"/>
</svg>
