<svg width="98" height="176" viewBox="0 0 98 176" fill="none" xmlns="http://www.w3.org/2000/svg">
<path d="M65.7859 8.75045V79.2091C83.7636 90.1302 94.6913 103.165 96.8063 118.314C99.6263 162.703 71.0735 171.51 49.2182 174.681C27.3629 177.851 5.15511 157.066 1.27756 128.178C-1.82448 105.067 21.8403 85.9026 34.0605 79.2091V8.75045C27.2923 3.95926 32.6505 1.58716 36.1755 1H64.3759C71.144 2.69101 68.1359 6.87155 65.7859 8.75045ZM65.7859 8.75045C63.7884 9.45504 58.8063 10.4415 54.8583 8.75045M37.2331 20.0238L40.4056 16.5009M37.9381 22.1376L41.4631 20.0238M39.7006 26.0128L40.4056 24.6036M37.2331 31.6495L43.5781 25.3082M38.9956 33.411L40.4056 31.6495M38.9956 37.2862L41.4631 34.4678M37.9381 40.8091L44.9882 32.3541M37.9381 44.6843L45.6932 35.5247M41.8156 43.9798L44.9882 39.4M37.9381 50.6733L44.2831 42.9229M38.9956 53.4917L43.5781 49.2642M37.9381 59.4807L46.3982 50.6733M42.5206 59.4807L44.9882 57.0146M39.7006 65.8219L44.2831 61.2421M30.183 110.915C36.6456 114.673 52.3202 121.625 63.3184 119.37C74.3165 117.116 81.5311 112.794 83.7636 110.915M30.183 110.915C20.0309 106.31 14.2028 108.057 12.5578 109.506C2.68765 110.915 7.97521 174.681 53.8008 166.93C94.0441 160.124 92.3412 126.299 86.5837 110.915C86.5837 110.915 85.9961 109.037 83.7636 110.915M30.183 110.915C40.2881 111.503 62.8249 111.761 72.131 108.097C79.1811 106.688 82.8236 109.389 83.7636 110.915M21.7229 98.2329L27.7154 96.4714M26.6579 95.0623H29.1255M14.6728 104.222L27.7154 99.6421M12.5578 108.449L24.8954 104.222M13.2628 114.791H15.0253M11.1477 120.427L16.0828 118.314M22.7804 116.904L9.03272 123.246M9.38523 126.416L18.9028 121.837M14.6728 125.712L16.4353 124.655M10.0902 130.292L22.0754 124.655M14.3203 130.996L17.4928 132.405L13.9678 133.815M9.03272 141.565C9.03272 141.283 15.1428 137.69 18.1978 135.928M11.8528 146.145C11.8528 145.581 15.1428 142.857 16.7878 141.565M14.3203 147.906L18.9028 143.679M15.0253 150.02L21.0179 143.679M18.9028 152.838L21.0179 150.02" stroke="black"/>
</svg>
