<svg width="153" height="124" viewBox="0 0 153 124" fill="none" xmlns="http://www.w3.org/2000/svg">
<path d="M108.809 39.784C108.888 39.8849 108.973 39.9906 109.065 40.1006M109.065 40.1006C111.126 42.5909 116.111 47.2905 121.578 48.4445C123.982 48.4445 124.833 51.2058 124.958 52.5865V41.6667C109.635 36.847 109.81 24.5968 111.813 19.0742L124.958 30.3705L125.71 22.8396C120.301 15.9112 123.456 8.40548 125.71 5.51865L128.339 3.25939L130.968 5.51865C136.977 9.73593 133.472 18.8232 130.968 22.8396C130.968 26.354 131.268 32.7803 132.47 30.3705C133.672 27.9606 142.485 21.8355 146.742 19.0742C151.549 32.3285 138.229 39.6585 130.968 41.6667L130.592 52.5865C130.592 50.1766 134.849 48.8211 136.977 48.4445L144.113 42.4198C148.62 55.3729 137.978 62.8787 132.094 65.0124V72.9198C135.475 69.0289 143.136 62.0001 146.742 65.0124C150.347 68.0248 143.487 77.5639 139.606 81.9568L132.094 85.3457V107.562C147.718 106.056 151.875 117.226 152 123H1.01827C0.417348 116.975 14.7894 109.193 22.0506 106.055L22.8017 82.7098C8.07911 83.0111 7.65345 68.7778 9.28095 61.6235C13.4874 61.6235 19.0459 68.6523 21.2994 72.1667L22.0506 62.7531C9.43118 59.7407 6.19651 45.8942 6.15659 39.3474M109.065 40.1006C109.104 46.6473 112.339 60.4939 124.958 63.5062L124.207 72.9198C121.954 69.4054 116.395 62.3766 112.189 62.3766C110.561 69.5309 110.987 83.7642 125.71 83.463L124.958 106.809C119.325 107.687 107.006 110.8 102.799 116.222C95.288 110.8 85.3978 106.683 81.3916 105.302V83.0863L88.9032 79.6975C92.7841 75.3045 99.6446 65.7654 96.0391 62.753C92.4336 59.7407 84.7718 66.7695 81.3916 70.6604V62.753C87.2757 60.6193 97.917 53.1135 93.4101 40.1604L86.2741 46.1851C84.1873 46.5543 80.0545 47.8647 79.8941 50.1873M79.8941 50.1873C79.8909 50.2335 79.8893 50.2801 79.8893 50.3271L79.8941 50.1873ZM79.8941 50.1873L80.2649 39.4073C87.526 37.3991 100.846 30.0691 96.0391 16.8148C91.7826 19.5761 82.969 25.7012 81.7672 28.1111C80.5654 30.5209 80.2649 24.0946 80.2649 20.5802C82.7687 16.5638 86.2741 7.47653 80.2649 3.25926L77.6359 1L75.0068 3.25926C72.7534 6.14608 69.5985 13.6518 75.0068 20.5802L74.2557 28.1111L61.1105 16.8148C59.1074 22.3374 58.9322 34.5876 74.2557 39.4073V50.3271C74.1305 48.9464 73.2792 46.1851 70.8755 46.1851C65.4082 45.0311 60.4232 40.3315 58.3617 37.8412M58.1059 37.5246C58.1853 37.6255 58.2707 37.7312 58.3617 37.8412M58.3617 37.8412C58.4016 44.3879 61.6363 58.2345 74.2557 61.2468L73.5045 70.6604C71.2511 67.146 65.6925 60.1172 61.4861 60.1172C59.8586 67.2715 60.2842 81.5048 75.0068 81.2036L74.2557 104.549C67.8709 107.436 54.8759 113.963 53.9745 116.975C52.8478 120.741 36.3225 106.055 29.1865 106.809V84.5926L36.698 81.2037C40.579 76.8107 47.4395 67.2716 43.834 64.2593C40.2285 61.247 32.5667 68.2758 29.1865 72.1667V64.2593C35.0705 62.1255 45.7119 54.6198 41.2049 41.6667L34.069 47.6914C31.9822 48.0606 27.8494 49.371 27.689 51.6936M27.689 51.6936C27.6858 51.7398 27.6842 51.7864 27.6842 51.8333L27.689 51.6936ZM27.689 51.6936L28.0598 40.9136C35.3209 38.9054 48.6414 31.5754 43.834 18.3211C39.5774 21.0824 30.7639 27.2075 29.5621 29.6173C28.3602 32.0272 28.0598 25.6009 28.0598 22.0865C30.5636 18.07 34.069 8.9828 28.0598 4.76552L25.4307 2.50626L22.8017 4.76552C20.5482 7.65234 17.3934 15.1581 22.8017 22.0865L22.0506 29.6173L8.90538 18.3211C6.9023 23.8437 6.72703 36.0939 22.0506 40.9136V51.8333C21.9254 50.4527 21.0741 47.6914 18.6704 47.6914C13.2031 46.5374 8.21805 41.8377 6.15659 39.3474M5.90076 39.0309C5.9802 39.1318 6.06554 39.2375 6.15659 39.3474" stroke="black"/>
</svg>
