<svg width="54" height="54" viewBox="0 0 54 54" fill="none" xmlns="http://www.w3.org/2000/svg">
<path d="M19.6669 53.6667L18.6002 45.1333C18.0224 44.9111 17.478 44.6444 16.9669 44.3333C16.4557 44.0222 15.9557 43.6889 15.4669 43.3333L7.53353 46.6667L0.200195 34L7.06686 28.8C7.02242 28.4889 7.00019 28.1889 7.00019 27.9V26.1C7.00019 25.8111 7.02242 25.5111 7.06686 25.2L0.200195 20L7.53353 7.33333L15.4669 10.6667C15.9557 10.3111 16.4669 9.97777 17.0002 9.66666C17.5335 9.35555 18.0669 9.08888 18.6002 8.86666L19.6669 0.333328H34.3335L35.4002 8.86666C35.978 9.08888 36.5224 9.35555 37.0335 9.66666C37.5446 9.97777 38.0446 10.3111 38.5335 10.6667L46.4669 7.33333L53.8002 20L46.9335 25.2C46.978 25.5111 47.0002 25.8111 47.0002 26.1V27.9C47.0002 28.1889 46.9557 28.4889 46.8669 28.8L53.7335 34L46.4002 46.6667L38.5335 43.3333C38.0446 43.6889 37.5335 44.0222 37.0002 44.3333C36.4669 44.6444 35.9335 44.9111 35.4002 45.1333L34.3335 53.6667H19.6669ZM24.3335 48.3333H29.6002L30.5335 41.2667C31.9113 40.9111 33.1891 40.3889 34.3669 39.7C35.5446 39.0111 36.6224 38.1778 37.6002 37.2L44.2002 39.9333L46.8002 35.4L41.0669 31.0667C41.2891 30.4444 41.4446 29.7889 41.5335 29.1C41.6224 28.4111 41.6669 27.7111 41.6669 27C41.6669 26.2889 41.6224 25.5889 41.5335 24.9C41.4446 24.2111 41.2891 23.5556 41.0669 22.9333L46.8002 18.6L44.2002 14.0667L37.6002 16.8667C36.6224 15.8444 35.5446 14.9889 34.3669 14.3C33.1891 13.6111 31.9113 13.0889 30.5335 12.7333L29.6669 5.66666H24.4002L23.4669 12.7333C22.0891 13.0889 20.8113 13.6111 19.6335 14.3C18.4557 14.9889 17.378 15.8222 16.4002 16.8L9.8002 14.0667L7.20019 18.6L12.9335 22.8667C12.7113 23.5333 12.5557 24.2 12.4669 24.8667C12.378 25.5333 12.3335 26.2444 12.3335 27C12.3335 27.7111 12.378 28.4 12.4669 29.0667C12.5557 29.7333 12.7113 30.4 12.9335 31.0667L7.20019 35.4L9.8002 39.9333L16.4002 37.1333C17.378 38.1556 18.4557 39.0111 19.6335 39.7C20.8113 40.3889 22.0891 40.9111 23.4669 41.2667L24.3335 48.3333ZM27.1335 36.3333C29.7113 36.3333 31.9113 35.4222 33.7335 33.6C35.5557 31.7778 36.4669 29.5778 36.4669 27C36.4669 24.4222 35.5557 22.2222 33.7335 20.4C31.9113 18.5778 29.7113 17.6667 27.1335 17.6667C24.5113 17.6667 22.3002 18.5778 20.5002 20.4C18.7002 22.2222 17.8002 24.4222 17.8002 27C17.8002 29.5778 18.7002 31.7778 20.5002 33.6C22.3002 35.4222 24.5113 36.3333 27.1335 36.3333Z" fill="#FFF"/>
</svg>
